P3
32 16
255
244 244 244 
245 245 245 245 245 246 246 246 247 246 246 247 248 248 248 
249 249 250 247 247 248 243 244 246 244 244 245 241 241 242 232 233 236 
222 223 228 224 224 229 237 237 239 240 240 242 245 246 245 247 247 247 
242 242 243 242 242 243 242 242 243 248 247 246 247 246 246 243 243 243 
242 242 242 246 246 247 248 248 249 248 248 248 246 246 246 246 246 246 
247 246 246 247 247 246
241 241 238 
241 240 239 236 236 233 223 223 217 225 225 221 221 221 215 
201 200 191 181 179 168 149 151 154 125 130 149 116 121 147 101 108 139 
 73  81 123  75  83 122 110 116 143 111 115 145 115 117 148 133 136 162 
187 189 199 242 242 243 242 242 242 198 201 212 155 158 177 171 171 178 
196 195 193 214 214 211 210 208 203 214 213 212 228 228 230 226 227 227 
221 221 223 216 217 224
124 126 116 
126 130 111 110 116  91  96  99  67  99 104  67  85  93  53 
 73  80  38  66  72  28  53  63  23  41  50  27  35  46  32  28  44  34 
 16  35  40  17  33  34  23  38  38  12  20  47   0   2  57   5  11  64 
 50  57  94 131 133 159 178 181 193  58  69 108  43  49  75  62  64  81 
 84  85  86  94  95  76  81  82  58  80  83  62  95 100  82  95 100  82 
 83  91  76  56  70  99
  7  15  60 
 13  28  59  19  40  56  19  38  54  39  59  18  49  66   9 
 54  68  16  50  66  13  51  67  13  59  70  18  65  75  23  59  74  19 
 50  69  15  41  63  12  35  59  25  31  52  36  18  36  54   5  14  59 
  0   6  63   3   8  64  24  31  81  13  23  56  38  46  31  29  41  39 
 26  38  32  50  58  18  53  62  17  40  53  18  29  36  47  18  23  53 
 16  27  51   3  17  67
  0   2  58 
  0   3  59   0  10  65   3  21  65  22  45  34  60  78  35 
121 115  70 146 131  87 147 135  90 132 123  77 155 138  90 144 137  99 
 81  93  59  56  72  44  46  60  28  41  54  32  47  58  45  11  17  55 
  0   5  62   0   4  60   0   3  59   4  12  53  18  34  33  34  56  18 
 44  64  18  84  91  40 103  98  53  39  44  44   0   1  53   0   0  52 
  0   0  53   0   1  56
  0   0  50 
  0   0  52   0   0  51   1   4  48   5  13  45  24  45  49 
 78  92  38 115 113  60 155 142  93 153 143  93 177 157 112 178 157 126 
172 153 115 128 116  96  98  93  89 135 118 101 163 137 105  64  54  69 
  1   1  45   0   0  43   0   0  45   0   0  47   1   4  45  22  36  30 
 45  63  25 108 102  59 109  96  75  25  24  52   0   0  45   0   0  43 
  0   0  44   0   0  45
  0   0  41 
  0   0  41   0   0  41   0   0  40   0   0  41   6  12  41 
 32  48  28  63  82  31  70  78  50 107 105  66  84  80  80 133 121 114 
192 169 134 191 169 130 233 212 154 237 211 153 240 208 147 169 152 122 
 19  20  57   0   0  40   0   0  40   0   0  41   1   1  42   6  11  42 
 18  27  39  59  61  51  25  26  53   0   0  43   0   0  42   0   0  41 
  0   0  41   0   0  40
  0   0  41 
  0   0  41   0   0  41   0   0  41   0   0  41   3   7  40 
 11  16  39  28  39  39   9  11  45  34  33  50   5   5  44  36  32  62 
121 104  82 120 118  60 128 132  64 137 138  78 128 125  75  83  88  63 
 10  12  52   0   0  42   0   1  44   9  16  41  27  37  33  18  25  40 
 11  17  43   4   6  43   0   0  43   0   0  44   0   0  45   0   0  44 
  0   0  44   0   0  43
  0   0  43 
  0   0  43   0   0  43   4   8  40   3   8  40   3   9  38 
 12  24  34   9  18  38   0   1  41   0   1  43   0   0  42   3   2  43 
 53  44  51  69  78  31  43  62   4  33  45  26  10  14  42   4   6  40 
  0   0  42   7   7  41  22  34  35  31  53  12  39  61   4  29  43  38 
  0   1  52   0   0  47   0   0  45   0   0  44   0   0  44   0   0  44 
  0   0  44   0   0  44
  0   0  41 
  0   0  42   0   0  43  18  22  43  38  38  50  23  21  48 
  4   7  42   1   3  41   0   0  42   0   0  43   0   0  43   1   1  44 
 17  17  40  59  61  30  70  71  29  31  32  44   0   0  44   0   0  41 
  0   0  40  19  19  39  64  69  28  49  65  10  46  60  16  24  33  47 
  0   0  48   0   0  43   0   0  42   0   0  41   0   0  41   0   0  43 
  0   0  42   0   0  42
  0   0  41 
  0   0  42   6   6  42  85  69  58 134 100  68 108  78  61 
 31  22  51   0   0  42   0   0  40   0   0  40   0   0  42   3   3  42 
 18  17  42  51  48  44 115  99  67  43  38  61   0   0  41   0   0  40 
  0   0  40   4   4  41  41  44  38  66  73  28  77  72  56  11  10  52 
  0   0  41   0   0  40   0   0  40   0   0  40   0   0  40   0   0  41 
  0   0  41   0   0  41
  1   5  45 
  1   1  46   6   8  47  67  61  53  71  55  61  49  39  56 
 18  17  55   0   0  47   0   0  44   0   0  45   0   0  46   0   0  45 
  0   0  46  15  13  49  51  44  62  11  10  57   0   1  49   0   1  48 
  0   0  47   0   1  50   4   9  53  42  54  50  74  73  61  11  12  56 
  0   0  44   0   0  43   0   0  42   0   0  43   0   0  43   0   0  42 
  0   0  42   0   0  44
  1  10  59 
  2   9  58   0   5  62   1  11  61   0   4  60   0   4  64 
  0   4  63   0   0  56   0   0  55   0   0  55   0   0  56   0   2  58 
  0   2  58   0   1  59   0   1  57   0   2  59   0   3  63   0   4  62 
  0   5  64   0   8  68   0   9  70   3  18  70  52  59  71  17  23  66 
  0   0  53   0   0  52   0   0  50   0   0  53   0   2  56   0   2  55 
  0   2  56   0   3  58
 37  55 107 
 28  48 101  24  43  97  29  42  96  31  45  97  23  39  95 
 24  40  95  26  40  93  29  40  92  34  42  92  38  47  96  32  43  95 
 28  39  92  26  37  91  23  33  87  25  34  88  26  35  89  28  38  90 
 30  43  96  44  59 109  43  57 107  31  45  98  36  54  97  34  49  97 
 30  41  94  27  38  92  23  36  89  21  36  92  24  41  96  28  47 101 
 29  50 103  28  46 100
210 215 224 
198 206 217 190 200 213 197 204 216 197 205 217 189 198 212 
188 198 212 189 200 213 194 202 215 201 206 217 202 208 218 198 205 217 
196 203 215 193 200 212 190 197 210 193 199 212 196 201 214 199 204 215 
202 206 217 217 221 227 218 221 228 204 209 219 186 195 210 195 202 214 
201 206 217 199 204 215 194 200 213 189 197 211 195 203 215 200 207 218 
202 208 219 202 209 219
244 245 245 
239 242 243 230 236 238 231 236 238 230 235 238 232 237 240 
232 237 239 229 234 237 229 234 237 228 234 237 225 232 236 227 234 237 
229 236 238 230 236 238 230 236 239 231 237 239 232 237 240 232 237 240 
231 236 238 234 239 240 237 241 242 240 243 244 236 240 242 231 236 239 
232 237 239 233 237 240 233 238 240 233 237 239 232 237 239 233 239 240 
242 244 245 246 246 246
