P3
2 1
255
 67  68  78 
 66  69  78
