P3
8 4
255
171 175 173 
163 168 152 133 137 123  95 104 109 105 111 133 150 154 170 
149 151 148 159 162 158
 36  41  73 
 51  60  60  94  96  64  99 100  74  72  74  77  37  42  73 
 56  62  56  46  49  63
  0   0  39 
 14  14  39  23  24  44  63  59  57  55  53  55  15  20  34 
 12  16  36   0   0  38
 55  62  96 
 66  68  98  51  55  93  55  59  93  54  58  94  64  71  97 
 58  63  94  49  54  93
