P3
4 2
255
 96 101 105 
101 105  91  88  92  99  90  94 101
 36  39  65 
 53  55  67  56  58  70  36  40  62
