P3
16 8
255
243 243 239 
238 238 234 232 232 228 220 219 214 190 190 193 166 169 185 
142 147 171 156 159 179 171 172 190 211 212 219 237 237 239 202 203 212 
214 213 214 226 225 224 232 232 231 231 231 231
125 129 132 
118 125 120 114 122  96 105 112  76  83  91  61  67  77  62 
 48  63  58  47  61  63  41  49  81  81  86 121 126 130 154  81  87 103 
100 103  98 110 114  92 110 114 107  99 106 115
  1   6  54 
  3  12  54  22  39  36  81  88  42 116 112  62 128 121  73 
 99 102  63  64  73  47  55  59  58   6   9  57   3   7  56  14  26  36 
 47  60  27  69  71  40  13  16  43   1   4  48
  0   0  43 
  0   0  43   2   6  41  39  50  39  81  82  57 100  92  83 
148 132 106 166 154 108 162 146 107  37  34  59   0   0  41   7  12  39 
 30  37  40  36  34  51   1   1  43   0   0  41
  0   0  41 
  2   2  41  10  12  41   9  15  38   5   8  40   5   5  45 
 54  50  49  76  82  37  43  46  49  10  11  44  22  30  31  31  45  23 
  7  11  44   0   0  43   0   0  42   0   0  42
  0   0  41 
 18  16  44  73  58  56  26  21  48   0   0  41   0   0  41 
 17  16  41  54  50  48   6   6  45   0   0  41  33  38  36  48  53  42 
  3   4  44   0   0  40   0   0  40   0   0  40
 10  19  67 
 14  22  68  28  30  70  14  18  68   9  12  63  10  13  64 
 10  13  65  16  18  67   9  12  66  10  16  69  16  27  74  36  45  74 
 12  16  64   7  11  60   7  12  63   8  15  65
165 174 193 
157 168 189 157 166 188 154 164 186 157 165 186 161 168 188 
157 166 186 155 162 184 158 164 185 164 171 191 170 177 195 160 169 188 
160 168 188 157 164 186 157 167 188 164 173 192
