P3
64 32
255
245 245 245 
245 245 245 245 245 245 245 245 245 245 245 245 245 245 245 
245 245 245 245 245 245 245 245 245 245 245 245 245 245 245 245 245 245 
245 245 245 245 245 245 246 246 246 246 246 246 246 246 246 246 246 246 
246 246 246 247 247 246 247 247 246 247 247 247 249 249 248 250 250 249 
251 251 250 252 252 251 251 251 250 250 250 249 248 247 247 248 247 247 
248 247 247 246 246 246 246 246 246 246 246 246 246 246 246 247 247 247 
247 247 247 247 247 247 246 246 246 246 246 246 246 246 246 
246 246 246 246 246 246 246 246 246 247 247 246 246 246 246 247 247 247 
247 247 247 247 247 247 247 247 247 246 246 246 245 245 246 245 245 245 
245 245 245 245 245 245 245 245 245 245 245 245 245 245 245 245 245 245 
245 245 245 245 245 245 245 245 245 245 245 245 245 245 245
245 245 245 
245 245 245 245 245 245 246 246 246 246 246 246 246 246 246 
246 246 246 246 246 246 246 246 246 246 246 246 246 246 246 246 246 246 
248 248 248 248 248 248 246 247 247 242 242 243 241 241 243 246 247 246 
246 246 246 237 238 240 239 239 241 238 238 240 221 222 227 214 215 223 
204 205 215 200 200 211 208 209 217 219 220 226 232 232 235 233 234 237 
232 233 236 241 242 243 246 246 246 246 247 246 246 246 246 243 243 243 
234 234 236 235 235 237 242 242 243 242 242 244 239 239 240 
240 240 241 245 244 245 244 244 244 241 241 242 244 244 244 242 242 242 
235 235 235 236 236 237 242 242 243 246 246 246 247 247 247 247 247 248 
247 247 247 246 246 246 246 246 246 245 245 245 245 245 245 245 245 245 
245 245 245 245 245 245 245 245 245 245 245 245 245 245 245
247 247 247 
247 247 247 246 246 247 248 248 248 249 249 249 248 248 248 
243 243 243 238 238 237 246 246 246 248 247 248 246 246 247 246 246 246 
226 225 222 205 202 195 200 198 190 181 180 183 122 127 150 122 130 159 
121 129 159  82  87 126  98 103 138 111 116 147  68  75 115  45  54 102 
 31  41  94  26  34  87  32  40  91  54  62 108 107 113 144 127 134 158 
 90  98 133  94  98 135 114 118 150 117 121 152 144 147 171 164 167 182 
203 206 209 240 240 241 246 246 246 245 245 246 242 242 243 
244 244 245 234 234 238 202 204 214 170 172 185 151 153 172 184 187 194 
183 182 176 198 198 196 217 217 216 227 227 226 234 233 231 228 227 224 
226 225 221 241 240 239 249 249 249 249 249 249 249 248 248 248 248 248 
248 248 248 248 248 249 249 248 248 248 248 248 248 248 248
232 231 227 
231 230 226 232 231 228 230 229 225 212 212 204 196 196 185 
165 165 145 161 162 142 193 194 181 179 179 163 153 154 132 150 151 128 
116 113  87  96  91  60  98  93  59  98  92  63  74  72  52  48  53  54 
 28  38  60  23  31  59  24  34  69  24  38  85  35  46  81   7  21  71 
  0  20  81   0  15  74   2  17  68   8  24  67  14  26  67  14  20  68 
  1   3  59   0   0  57   0   2  60   0   6  64   3  11  69  28  35  83 
112 117 136 209 213 217 248 249 249 249 249 249 248 248 248 
210 213 216  97 109 141  32  44  96  35  42  90  51  56  91 102 103 115 
137 134 127 157 156 154 153 152 150 179 180 175 166 163 146 150 144 126 
125 120 111 143 141 139 184 186 191 185 188 197 180 182 190 184 184 188 
175 176 177 159 161 165 151 155 171 134 140 166 153 158 179
120 117  92 
116 114  80 117 116  80 106 106  72  84  87  46  74  79  36 
 72  74  29  79  80  37  78  81  39  73  77  34  56  65  20  56  67  20 
 64  69  25  66  71  27  65  70  24  63  69  23  57  66  19  54  65  19 
 56  63  27  51  57  34  48  56  30  40  53  31  35  50  30  29  46  36 
 20  42  51  19  37  49  27  39  30  35  48  20  35  49  28  32  43  35 
 11  17  52   0   3  57   0   2  58   0   6  64   2  10  65  19  26  67 
 30  40  78  75  79 116 134 138 163 201 203 213 246 246 245 
133 138 148   6  25  78  18  32  82  70  72  83  68  68  72  47  51  75 
 79  77  78  84  82  72  76  74  56  81  85  68  70  71  46  65  64  41 
 54  55  41  55  57  41  62  65  41  56  63  41  59  65  38  66  71  39 
 65  69  34  62  67  33  41  53  55  11  30  77  34  46  75
 24  36  62 
 36  49  54  47  62  46  48  66  46  44  59  46  50  61  34 
 56  64  34  61  68  30  53  68  15  50  66  12  49  64  11  48  65  11 
 48  64  11  47  64  10  44  63   7  40  60   4  36  56   1  39  54   2 
 40  52   4  39  48   5  39  53   3  38  57   2  36  56   1  35  56   1 
 34  55   2  30  51   9  27  45  12  27  47  14  19  45  41  26  46  29 
 36  48  25  17  25  52   0   4  58   2   8  60   1   6  60  16  22  65 
  7  15  64   0   0  56   2   3  59  44  49  94 135 141 163 
 56  66 104   0   9  69  15  23  68  46  48  59  52  51  47  25  31  63 
 20  27  72  22  30  62  50  51  31  56  54  20  52  53  21  45  52  16 
 42  52  12  48  57  15  60  67  22  63  72  34  69  76  58  57  66  54 
 56  68  45  52  65  27  34  55  53   7  32  81   9  26  76
  0   5  62 
  0   9  66   2  24  80  17  46  65  25  52  52   7  27  73 
  6  24  69  21  44  53  42  62  17  46  64   8  47  65   7  52  68  13 
 49  64  13  38  58   8  37  59   3  37  58   3  39  60   5  43  64   7 
 53  69  14  54  70  15  53  70  13  48  69  11  48  68  11  51  71  14 
 47  68  10  46  67   8  41  63   5  41  64  11  31  59  37  23  47  44 
 30  55  40  14  34  61  15  34  62  21  41  53   3  12  60   0   4  63 
  0   7  66   0   6  63   0   4  60   0   3  59   3  10  66 
  0   7  65   4  13  56  32  40  36  47  52  22  52  55  20  21  36  52 
 14  28  53  25  37  33  38  49  14  41  52  11  48  57  16  47  62  11 
 41  58   7  41  56  10  50  63  38  30  40  61  15  17  65   6   9  60 
 11  19  61  17  31  58   8  26  69   0  17  76   0  11  71
  0   8  65 
  0   5  62   0   5  62   1  14  65   7  33  71   0  19  78 
  1  26  78  20  46  43  39  63   9  45  70   9  52  75  14  77  86  34 
 77  84  37  66  77  32  74  83  34  95  95  47  91  94  45  75  87  33 
 97  98  52 106 102  55 114 107  60 114 109  62  99 100  51  90  95  50 
 78  88  38  62  82  27  57  79  24  56  77  17  56  76  15  52  72  19 
 50  72  21  48  78  38  43  74  55  16  37  58   3  12  60   0   6  63 
  0  12  71   0   8  67   0   8  67   0   7  65   0   9  68 
  1  10  62  13  26  41  22  36  29  32  49  14  37  52   5  33  55  19 
 31  49  15  30  45   9  42  60  10  62  79  24  97  98  50  85  88  40 
 53  65  18  37  53  30  12  21  51   0   1  56   0   0  54   0   0  53 
  0   0  54   0   1  57   0   4  60   0   6  63   0   8  65
  0   3  58 
  0   3  58   0   4  59   0   4  60   0   8  65   0  11  69 
  3  27  73   9  35  60  24  49  35  43  66  15  75  90  36 112 111  65 
163 141  98 175 149 106 168 147 106 169 148 109 164 146 103 134 126  79 
126 119  75 144 128  82 176 152 103 193 173 123 181 168 126  91 105  96 
 77  91  52  45  70  48  35  59  62  52  71  43  60  77  21  49  63  26 
 43  56  29  46  59  26  55  68  37  26  32  52   3   7  57   0   6  65 
  0  11  71   0   8  66   0   6  64   0   4  60   0   8  66 
  0  10  64   3  13  58   7  20  55  19  42  37  35  60  13  37  60  16 
 33  55  32  40  62  23  59  78  23  88  95  44 117 110  65 100  95  52 
 87  85  42  30  39  40   0   1  55   0   1  56   0   1  55   0   0  53 
  0   0  54   0   0  54   0   1  56   0   0  56   0   2  57
  0   2  58 
  0   2  58   0   2  58   0   3  60   0   3  59   0   5  62 
  1  10  61  11  27  50   6  18  57  19  36  40  35  65  54  67  90  54 
125 118  69 178 152 106 174 150 107 186 163 123 200 176 136 199 175 130 
174 155 112 136 125  81 170 148  99 212 180 129 185 168 135  84  94  93 
110 109  64 103 101  69  85  85  66  51  55  50  34  38  37  22  23  42 
 30  29  49  40  35  55  73  66  56  80  74  51  10  12  49   0   1  52 
  0   1  52   0   1  52   0   1  51   0   0  51   0   1  53 
  0   2  57   0   1  55   0   2  54   1   6  56  17  35  44  42  69  18 
 49  73  15  54  76  16  71  86  29 103 102  54 117 107  65 142 122  83 
126 112  74  33  36  50   0   0  51   0   0  51   0   0  52   0   0  49 
  0   0  49   0   0  51   0   0  51   0   0  52   0   1  54
  0   0  50 
  0   0  53   0   0  53   0   1  55   0   0  52   0   0  49 
  0   0  47   6  11  43  10  18  41   8  20  49  11  39  72  51  81  35 
 68  86  23  81  89  34  91  95  43 129 120  71 163 141  95 178 154 110 
153 142  97 136 131  81 188 163 116 209 177 135 197 168 132 169 149 112 
204 178 127 212 179 130  96  84  80  55  52  70  68  64  81  58  51  70 
145 127 108 206 179 134 188 150 115 129 104  87  22  18  53   0   0  43 
  0   0  43   0   0  42   0   0  42   0   0  43   0   0  45 
  0   0  47   0   0  47   0   0  45   0   0  44   1   5  46  26  40  28 
 46  68  12  48  71  15  73  84  29 127 114  69 141 120  81 144 122  89 
 81  72  73   7   8  50   0   0  46   0   0  46   0   0  44   0   0  42 
  0   0  42   0   0  44   0   0  44   0   0  44   0   0  46
  0   0  42 
  0   0  44   0   0  47   0   0  46   0   0  45   0   0  42 
  0   0  42   0   0  43   0   0  43   0   1  47   7  22  55  42  69  23 
 53  79   9  56  79  12  70  85  29  89 102  49 114 118  62 126 127  70 
115 122  61 164 157 100 187 169 129 171 152 132 157 137 116 159 146 126 
234 205 156 210 176 135 171 152 125 216 207 158 230 219 170 219 199 152 
242 202 144 242 206 149 246 207 149 230 188 140 138 118 111  20  18  57 
  0   0  41   0   0  41   0   0  41   0   0  41   0   0  41 
  0   0  41   0   0  41   0   0  41   0   0  42   0   0  44  10  15  43 
 17  26  40  11  24  43  46  52  48 135 120  78 114 106  70  68  68  74 
 11  11  52   0   0  43   0   0  43   0   0  44   0   0  43   0   0  41 
  0   0  41   0   0  41   0   0  41   0   0  42   0   0  41
  0   0  41 
  0   0  41   0   0  42   0   0  42   0   0  42   0   0  41 
  0   0  41   0   0  41   0   0  41   0   0  43   1   3  43  14  23  39 
 33  52  31  53  76  29  73  95  31  73  93  38  59  75  48 104 107  63 
121 118  63 121 119  83  58  58  73  43  42  74 159 147 130 224 211 164 
233 205 156 139 119 108 191 169 135 250 231 164 246 218 154 241 216 158 
243 217 157 240 210 155 247 219 158 248 215 155 239 213 159  88  90 103 
  0   0  48   0   0  42   0   0  41   0   0  40   0   0  41 
  0   0  41   0   0  41   0   0  42   1   2  42   6   8  44  10  16  45 
  4   8  44   6  12  40  26  30  44  91  92  52  38  46  53   8  12  54 
  0   0  43   0   0  43   0   0  42   0   0  42   0   0  42   0   0  41 
  0   0  42   0   0  43   0   0  42   0   0  41   0   0  41
  0   0  41 
  0   0  40   0   0  40   0   0  40   0   0  40   0   0  41 
  0   0  42   0   0  42   0   0  41   0   0  42   6  10  41   4   6  42 
  3   6  44  46  61  35  72  92  33  42  54  47   5   6  47  34  34  50 
110 100  65  56  53  57   0   0  43   3   3  47  76  73  90 177 158 130 
173 150 119 111 101  85 198 170 120 237 206 143 226 199 135 229 216 157 
234 220 160 229 197 138 223 195 134 209 194 132 194 178 116  84  94  97 
  0   2  54   0   0  44   0   0  42   0   0  42   0   0  42 
  0   0  42   0   0  44   0   0  45   3   4  44   7   8  43   2   3  43 
 15  22  37  30  47  27  28  39  35  23  31  38   2   4  45   0   0  44 
  0   0  43   0   0  44   0   0  44   0   0  43   0   0  43   0   0  43 
  0   0  43   0   0  43   0   0  42   0   0  41   0   0  41
  0   0  42 
  0   0  41   0   0  41   0   0  41   0   0  41   0   0  42 
  0   0  43   0   0  42   0   0  42   1   2  42   9  17  39   2   4  43 
  2   3  42  34  45  35  31  42  41   6  10  48   0   0  46   4   4  44 
 57  56  56  18  18  49   0   0  43   0   0  42   0   0  45  76  61  77 
132 107  87  98 100  48  95 107  39 128 126  63 110 119  51 115 128  58 
137 139  70 140 137  72 127 127  63 104 112  46  75  92  40  26  39  58 
  0   0  48   0   0  44   0   0  43   0   0  43   0   0  43 
  0   0  47   1   5  51  17  26  43  34  42  38  31  41  39  10  16  43 
 21  32  41  10  20  51   1   3  49   0   0  45   0   0  45   0   0  45 
  0   0  45   0   0  46   0   0  46   0   0  46   0   0  46   0   0  46 
  0   0  45   0   0  45   0   0  45   0   0  43   0   0  42
  0   0  44 
  0   0  45   0   0  45   0   0  44   0   0  43   0   0  43 
  0   0  43   0   0  42   0   0  43   1   2  42   5   9  40   8  18  35 
  6  13  36   4   7  44  15  28  38   5   9  42   0   0  45   2   3  44 
  8  10  46   0   1  47   0   0  44   0   0  41   0   0  43  52  41  65 
147 112  80 114 104  50  71  89  23  45  73   4  44  70   1  50  74   6 
 61  81  24  47  59  44  39  49  39  40  54  34  19  28  38   0   1  46 
  0   0  46   0   0  45   0   0  44   0   0  43   0   1  47 
  8  24  51  26  45  30  47  65  14  57  75  13  61  79  21  25  36  46 
  2   4  51   0   1  52   0   0  48   0   0  46   0   0  46   0   0  46 
  0   0  46   0   0  46   0   0  46   0   0  47   0   0  47   0   0  47 
  0   0  46   0   0  47   0   0  46   0   0  45   0   0  45
  0   0  45 
  0   0  46   0   0  46   0   0  45   0   0  44   0   0  44 
  1   2  43   6  10  39   5  11  39   1   6  42   3   8  40  18  32  28 
 23  44  22  12  26  42  21  39  32   3   5  40   0   0  42   0   0  42 
  0   0  43   0   0  44   0   0  43   0   0  42   0   0  42   2   1  44 
 38  32  48 105  89  55  77  94  45  38  60   8  36  55   0  45  63   5 
 39  51  24   2   4  47   0   0  46   0   0  45   0   0  44   0   0  43 
  0   0  43   0   0  43   0   0  43   6   7  41  14  31  44 
 31  65  30  38  59   1  36  56   1  33  56   1  45  65   6  41  57  45 
  3   9  61   0   0  52   0   0  50   0   0  48   0   0  48   0   0  47 
  0   0  46   0   0  46   0   0  46   0   0  45   0   0  45   0   0  45 
  0   0  45   0   0  46   0   0  45   0   0  45   0   0  45
  0   0  42 
  0   0  42   0   0  43   0   0  43   0   0  44   1   5  43 
 16  27  35  30  48  32   8  19  45   0   3  46   4   8  41   7  13  41 
 12  21  43  12  21  40   6  11  39   0   0  43   0   0  42   0   0  43 
  0   0  45   0   0  46   0   0  44   0   0  44   0   0  45   0   0  45 
  0   0  45  46  45  38  79  81  37  54  63  19  52  61  12  56  65  17 
 23  30  40   0   0  51   0   0  46   0   0  43   0   0  42   0   0  43 
  0   0  41   0   0  41  16  16  42  59  62  34  56  69  19 
 45  66   6  32  55   0  29  51   0  28  51   0  32  55   0  43  59  42 
  6  12  63   0   0  50   0   0  48   0   0  46   0   0  46   0   0  45 
  0   0  44   0   0  44   0   0  43   0   0  42   0   0  43   0   0  44 
  0   0  43   0   0  44   0   0  44   0   0  44   0   0  42
  0   0  41 
  0   0  42   0   0  43   0   0  45   0   0  45   0   2  45 
 10  16  42  13  22  50  23  26  55  21  22  52   5   6  47   1   1  45 
  3   4  43   1   2  44   0   0  44   0   0  43   0   0  43   0   0  44 
  0   0  45   0   0  44   0   0  44   0   0  45   0   0  46   5   5  44 
  4   4  45  40  44  31  67  69  26  64  65  23  66  66  23  62  65  28 
 18  19  46   0   0  47   0   0  44   0   0  42   0   0  42   0   0  42 
  0   0  41   0   0  41  10  11  41  65  64  35  80  78  34 
 59  70  20  45  63   8  38  59   3  39  58   4  55  66  24  27  38  63 
  0   2  55   0   0  46   0   0  44   0   0  43   0   0  43   0   0  42 
  0   0  42   0   0  42   0   0  41   0   0  42   0   0  45   0   0  45 
  0   0  43   0   0  42   0   0  42   0   0  43   0   0  43
  0   2  43 
  0   0  43   0   0  44   0   0  44   0   0  43   1   1  44 
 41  36  46  77  66  58  98  81  57 109  89  61  70  56  61  14  11  49 
  0   0  44   0   0  43   0   0  43   0   0  42   0   0  42   0   0  42 
  0   0  42   0   0  41   0   0  43   0   0  45   0   0  44  22  22  39 
 37  34  45  25  29  38  66  68  32  87  80  42  97  89  51 107  97  61 
 46  41  63   0   0  46   0   0  42   0   0  43   0   0  42   0   0  41 
  0   0  41   0   0  41   0   0  43  37  39  37  84  81  38 
 81  82  38  64  72  24  57  68  16  92  87  48  56  55  68   5   9  57 
  0   0  45   0   0  43   0   0  42   0   0  41   0   0  41   0   0  41 
  0   0  41   0   0  41   0   0  41   0   0  42   0   0  43   0   0  44 
  0   0  43   0   0  42   0   0  42   0   0  43   0   0  44
  0   0  41 
  0   0  42   0   0  44   0   0  43   0   0  43  26  25  47 
103  85  60 158 121  79 146 106  69 142 101  67 143 100  69 105  76  65 
 29  21  53   0   0  46   0   0  44   0   0  41   0   0  41   0   0  41 
  0   0  41   0   0  41   0   0  45   0   0  45   0   0  43  12  12  41 
 43  37  47   5   5  46  53  52  42 105  93  58 137 116  78 133 112  88 
 27  27  66   0   0  45   0   0  42   0   0  41   0   0  41   0   0  41 
  0   0  40   0   0  41   0   0  42  12  14  43  46  49  38 
 68  75  31  63  73  25  73  76  31 124 104  81  25  22  65   0   0  45 
  0   0  42   0   0  41   0   0  41   0   0  41   0   0  41   0   0  41 
  0   0  41   0   0  40   0   0  40   0   0  41   0   0  41   0   0  43 
  0   0  43   0   0  42   0   0  42   0   0  42   0   0  43
  0   0  42 
  0   0  43   0   0  44   0   0  44   0   1  44  51  50  42 
118  97  62 175 132  91 158 112  78 123  85  60 122  87  57 112  85  58 
 28  23  54   0   0  47   0   0  45   0   0  42   0   0  42   0   0  41 
  0   0  41   0   0  41   0   0  44   0   0  44   0   0  42   1   1  43 
  6   5  45   0   0  46  24  23  46  96  83  57 145 117  80 100  84  85 
  5   6  55   0   0  44   0   0  42   0   0  41   0   0  41   0   0  41 
  0   0  41   0   0  42   0   0  43   0   0  45   3   5  46 
 38  49  34  64  73  27  73  77  36 111  97  72  31  30  68   0   0  48 
  0   0  43   0   0  42   0   0  42   0   0  42   0   0  42   0   0  42 
  0   0  42   0   0  41   0   0  41   0   0  41   0   0  41   0   0  42 
  0   0  42   0   0  42   0   0  41   0   0  41   0   0  41
  1   2  45 
  1   3  46   0   0  47   0   0  46   0   0  48  25  28  41 
 85  80  46 101  85  59  55  44  57  28  22  55  38  35  53  41  42  50 
  5   9  55   0   0  50   0   0  45   0   0  45   0   0  45   0   0  45 
  0   0  45   0   0  45   0   0  44   0   0  44   0   0  44   0   0  44 
  0   0  45   0   0  46   1   1  48  31  29  52  61  55  61  22  25  63 
  0   0  53   0   0  48   0   0  47   0   0  47   0   0  47   0   0  46 
  0   0  46   0   0  46   0   0  47   0   0  50   0   0  52 
 11  22  58  50  69  51  79  83  42 103  95  66  36  44  74   0   2  57 
  0   0  47   0   0  45   0   0  44   0   0  43   0   0  43   0   0  43 
  0   0  44   0   0  44   0   0  43   0   0  43   0   0  43   0   0  43 
  0   0  43   0   0  43   0   0  43   0   0  43   0   0  44
  4  12  51 
  8  18  48   3   4  50   0   0  53   0   2  58   2   8  56 
 19  32  49  13  22  54   0   1  54   0   1  59   0   5  64   0   6  63 
  0   7  64   0   2  58   0   0  51   0   0  50   0   0  50   0   0  51 
  0   0  55   0   0  54   0   0  53   0   0  52   0   0  50   0   1  52 
  0   0  52   0   0  52   0   1  54   0   0  54   0   0  54   0   1  57 
  0   2  58   0   3  60   0   4  61   0   5  62   0   5  62   0   4  60 
  0   4  59   0   4  60   0   6  63   0   8  66   0   9  67 
  0   9  69   8  29  74  44  58  61  94  86  59  45  52  67   0   4  60 
  0   0  51   0   0  48   0   0  47   0   0  47   0   0  46   0   0  45 
  0   0  46   0   0  47   0   0  47   0   0  48   0   0  48   0   0  47 
  0   0  48   0   0  48   0   0  48   0   0  49   0   0  52
  0   7  66 
  7  16  62  16  22  58   0   6  62   0   8  68   0  10  67 
  0  12  64   0   6  66   0   5  63   0   6  65   0   7  67   0   6  64 
  0   8  66   0   4  61   0   2  58   0   2  58   0   1  57   0   2  58 
  0   4  62   0   3  60   0   4  60   0   5  62   0   6  64   0   7  64 
  0   4  61   0   5  62   0   5  63   0   4  61   0   4  61   0   4  61 
  0   5  62   0   6  65   0   7  67   0   7  67   0   8  66   0   8  67 
  0   9  68   0  11  71   0  13  74   0  15  77   0  14  75 
  0  14  74   0  14  76   7  23  75  79  75  68  70  76  83   1   9  64 
  0   1  56   0   0  54   0   1  54   0   0  53   0   0  52   0   0  50 
  0   0  50   0   1  54   0   1  55   0   3  58   0   2  56   0   1  54 
  0   1  54   0   1  56   0   2  56   0   4  61   0   6  62
  0  11  71 
  0   9  69   1  11  67   0  10  68   0  11  72   0  12  72 
  0  11  72   0   9  68   0   9  68   0  10  70   0  10  71   0  10  70 
  0  10  70   0   7  65   0   6  63   0   6  63   0   5  63   0   4  61 
  0   1  57   0   3  58   0   5  61   0   5  62   0   7  65   0   8  66 
  0   6  64   0   6  64   0   8  67   0   7  65   0   5  62   0   5  62 
  0   5  62   0   6  66   0   7  66   0   6  63   0   6  63   0   8  67 
  0  10  70   0  12  73   0  14  74   0  15  76   0  12  72 
  0  10  70   0  13  72   0  15  74  48  57  76  77  87  99   4  16  73 
  0   5  63   0   6  64   0   8  67   0   7  65   0   6  64   0   4  61 
  0   4  60   0   7  66   0  10  70   0  11  70   0  11  71   0  12  72 
  0  12  71   0  13  72   0  11  70   0  11  70   0  11  70
  1  26  88 
  3  29  89   0  26  87   0  21  83   0  22  83   0  16  78 
  0  12  73   0  12  72   0  16  76   0  16  77   0  16  79   0  19  81 
  0  16  79   0  17  78   0  14  75   0  13  73   0  12  72   0  12  72 
  2  11  69   1  11  69   7  16  74   1  14  73   0  14  74   0  14  75 
  0  10  71   0  10  71   0  14  76   0  12  74   0   9  69   0   8  68 
  0   9  69   0  10  72   0   9  70   0   8  67   0   9  69   0  14  75 
  0  15  77   1  20  80   7  26  86   6  26  87   3  21  82 
  3  17  77   0  14  76   0  17  79  11  33  82  11  31  84   0  15  77 
  0  17  77   0  15  76   0  13  74   0  13  74   0  13  74   0  13  73 
  0  15  76   0  20  81   0  19  81   0  18  80   0  21  84   0  25  87 
  0  32  93   0  28  90   0  22  84   0  21  82   0  20  83
122 140 170 
131 150 177  88 112 150  82 106 147  80 112 150  86 104 144 
101 115 152 124 136 166 120 137 167  78 105 144  83 103 143  78 101 142 
 80 104 145  89 113 151  98 120 156  80 103 144 106 123 157 113 126 159 
116 126 158 121 131 162 146 153 178 110 125 158 113 128 161 104 121 156 
 99 114 150  91 105 144  89 105 144  91 105 144  73  90 132  81  96 137 
 87 102 141  90 105 144  95 108 146  85 100 140 104 117 152  99 113 150 
 90 104 143 127 137 168 160 169 190 155 165 188 148 157 182 
143 152 177 102 116 152  90 108 147  66  90 135  72  94 138  85 104 144 
119 134 165 102 116 151  97 109 146  93 108 146  98 112 149  79 100 141 
 66  88 133  72  96 140  71  96 139  91 110 149  87 108 147  95 117 154 
107 127 161 101 121 156  92 115 152  98 122 158 110 128 162
241 242 243 
244 245 246 235 237 240 236 239 241 234 238 240 236 238 241 
239 242 243 241 243 245 235 239 242 226 233 237 233 237 240 231 235 239 
226 232 236 230 235 239 232 237 239 228 233 237 235 239 241 237 241 243 
237 240 242 241 242 244 238 241 243 236 240 242 238 241 243 237 240 242 
239 241 243 238 240 242 236 239 241 238 240 242 233 236 239 236 238 241 
237 239 242 239 241 243 242 243 244 239 241 242 243 244 245 240 241 243 
240 241 243 247 247 247 250 249 249 249 249 248 249 249 248 
249 249 248 243 244 245 234 238 240 222 228 234 234 237 240 239 241 243 
245 245 246 242 243 243 241 242 244 242 243 244 244 244 245 238 240 242 
233 234 238 236 237 240 235 237 240 242 243 244 237 239 241 241 241 243 
243 243 245 242 243 244 241 242 243 243 244 245 245 245 246
247 247 246 
247 247 247 241 243 245 233 238 240 233 238 241 233 238 241 
234 238 241 234 238 241 230 235 239 233 238 241 239 242 244 240 242 244 
235 239 242 232 237 240 229 235 238 229 234 237 231 236 239 234 239 241 
234 238 241 229 235 238 220 229 233 225 232 236 231 237 239 234 239 241 
234 239 242 233 238 241 232 237 240 233 238 241 234 239 241 236 240 243 
235 239 242 236 240 243 237 240 243 238 241 243 238 242 244 242 243 245 
243 245 245 244 245 245 246 246 246 247 247 247 246 246 246 
246 246 246 247 247 248 240 242 244 235 240 242 237 241 242 239 241 243 
240 243 244 240 243 244 239 242 243 239 242 243 244 245 246 242 244 245 
241 243 244 241 243 244 243 245 246 244 245 246 245 246 247 246 246 247 
246 247 247 247 247 247 247 247 247 246 246 246 246 246 246
246 246 246 
247 247 247 245 246 246 232 237 239 223 231 235 227 233 237 
229 234 237 228 234 237 227 233 237 227 233 237 229 234 238 231 236 239 
231 236 239 229 235 238 227 232 236 226 232 235 225 232 236 225 232 235 
225 232 235 224 231 235 224 231 235 225 232 235 226 232 236 226 233 236 
226 233 236 227 233 236 228 235 238 229 235 238 229 235 238 228 235 238 
229 235 238 229 235 238 230 236 239 230 236 239 226 233 237 224 231 235 
223 231 235 223 231 235 232 236 239 240 242 243 235 239 241 
236 240 242 245 246 246 245 246 247 239 242 243 233 238 240 226 232 236 
225 232 236 227 233 237 228 233 237 227 233 237 228 234 237 229 234 238 
227 233 237 227 234 236 227 234 237 227 233 237 227 234 237 228 235 238 
236 240 242 244 245 246 247 247 248 247 247 247 247 247 247
235 239 241 
233 238 240 229 235 237 226 233 236 226 233 236 228 234 237 
229 234 238 229 234 238 228 233 237 227 233 237 227 233 236 226 232 236 
225 232 235 226 233 236 226 233 236 226 232 236 226 233 236 227 232 236 
226 232 235 226 232 236 225 231 235 224 231 234 224 231 235 224 231 234 
224 232 235 224 232 235 224 232 234 223 231 234 223 231 234 223 231 234 
224 231 235 225 232 235 225 232 236 228 234 238 227 234 237 226 233 236 
226 232 236 225 232 236 226 232 236 226 233 237 229 235 238 
228 234 238 228 235 237 228 235 238 224 232 235 223 231 235 223 231 234 
224 232 235 229 234 238 230 234 238 228 234 238 226 233 236 226 233 236 
227 233 237 227 233 237 224 231 235 222 231 234 222 230 234 220 229 233 
224 232 235 232 238 240 238 241 243 238 241 243 236 240 241
